:SAMPLES-PER-SECOND 30
:FULLY-SPECIFIED
:DEGREES
177
root  -5.40921 36.4999 12.7694 -173.542 51.1779 178.597
RightUpLeg  -13.3904 -11.0222 -4.13776
RightLeg  39.9682 -8.85996 -8.11698
RightFoot  -30.3052 3.76078 23.4765
RightToes  2.32829e-010 0 -3.6325e-017
Spine  14.5157 3.14535 5.86372
Spine1  14.9606 8.83477 -13.4289
HEad  -19.1474 22.8661 -10.565
LeftShoulder1  1.26046 -1.90164 -16.6037
LeftArm  4.15338 28.3219 -55.4503
LeftForeArm  20.8862 -69.3373 -29.5987
LeftHand  -3.45283 -3.71151 42.428
RightShoulder  0.16007 -2.33087 6.05563
RightArm  -12.5919 6.12815 56.1782
RightForeArm  45.2755 77.9216 68.1826
RightHand  -1.11025 3.42944 -14.7695
LeftUpLeg  -27.6123 14.9697 4.31868
LeftLeg  47.0596 5.48271 6.68569
LeftFoot  -21.4619 -1.08206 -13.6064
LeftToes  -5.54824e-011 -8.71001e-011 8.3852e-012
178
root  -4.86629 36.0369 12.5785 -174.962 52.7508 177.433
RightUpLeg  -15.819 -11.2331 -5.31702
RightLeg  47.4274 -6.08719 -7.38416
RightFoot  -27.5309 3.28256 24.0817
RightToes  2.32829e-010 0 -3.6325e-017
Spine  14.7962 4.15659 1.05024
Spine1  15.3064 8.48107 -11.2187
HEad  -19.4673 23.7913 -10.4054
LeftShoulder1  1.31546 -2.2347 -16.1755
LeftArm  3.05642 27.6639 -57.2065
LeftForeArm  22.6511 -69.8131 -30.194
LeftHand  -3.58543 -4.31466 41.4168
RightShoulder  0.237695 -1.86367 6.9628
RightArm  -11.7901 5.44126 57.5762
RightForeArm  9.75751 69.4168 31.6315
RightHand  -1.415 4.38959 -16.9582
LeftUpLeg  -26.2354 16.2092 3.60452
LeftLeg  48.4636 6.10595 7.77834
LeftFoot  -25.116 -1.63706 -14.69
LeftToes  -5.54824e-011 -8.71001e-011 8.3852e-012
179
root  -4.15793 35.567 12.3747 -176.897 52.5898 176.161
RightUpLeg  -19.211 -11.4315 -6.33839
RightLeg  57.613 -4.88954 -8.81836
RightFoot  -21.7598 2.00208 23.1703
RightToes  2.32829e-010 0 -3.6325e-017
Spine  14.9811 4.99762 -5.22479
Spine1  15.4478 6.86341 -6.68824
HEad  -18.5208 24.7645 -10.257
LeftShoulder1  1.36411 -2.52308 -15.8584
LeftArm  3.93026 23.1367 -57.951
LeftForeArm  22.0903 -67.2701 -25.9821
LeftHand  -3.74682 -5.09698 40.1455
RightShoulder  0.346592 -1.36199 8.85008
RightArm  -9.20569 2.48302 58.2339
RightForeArm  -2.04808 57.7243 18.1866
RightHand  -1.70838 5.18453 -18.8906
LeftUpLeg  -24.1758 13.844 4.08932
LeftLeg  49.6898 6.49896 8.6071
LeftFoot  -27.8658 -2.34904 -17.2237
LeftToes  -5.54824e-011 -8.71001e-011 8.3852e-012
180
root  -3.32892 35.0301 12.1929 -178.298 51.2302 175.406
RightUpLeg  -23.9988 -11.5136 -6.79694
RightLeg  68.0212 -4.36556 -12.5107
RightFoot  -16.1652 0.765851 20.6277
RightToes  2.32829e-010 0 -3.6325e-017
Spine  14.5655 5.14508 -11.0256
Spine1  15.8015 4.57295 -2.22363
HEad  -17.7484 26.0288 -10.6185
LeftShoulder1  1.3644 -2.50428 -15.9441
LeftArm  5.17035 13.7463 -58.033
LeftForeArm  15.7199 -59.8819 -18.4145
LeftHand  -3.98845 -5.40636 41.3959
RightShoulder  0.499891 -0.865765 11.9394
RightArm  -6.16 -2.16204 58.4887
RightForeArm  -6.01647 45.7513 11.8587
RightHand  -1.98459 5.99778 -20.3297
LeftUpLeg  -23.0936 10.8399 5.09478
LeftLeg  52.1648 6.12484 8.87171
LeftFoot  -29.4209 -2.94966 -19.4944
LeftToes  -5.54824e-011 -8.71001e-011 8.3852e-012
181
root  -2.3652 34.5171 12.0268 -179.216 49.6434 175.07
RightUpLeg  -29.7298 -10.901 -7.05708
RightLeg  75.3742 -3.2365 -15.0926
RightFoot  -13.5763 0.258955 18.2077
RightToes  2.32829e-010 0 -3.6325e-017
Spine  13.6494 4.73065 -16.4072
Spine1  16.643 1.94861 1.89726
HEad  -18.1355 27.6168 -11.9013
LeftShoulder1  1.36813 -2.39749 -16.4569
LeftArm  5.05616 1.99618 -58.2186
LeftForeArm  7.21412 -51.4352 -13.4904
LeftHand  -4.09712 -5.16422 43.3114
RightShoulder  0.721269 -0.245801 15.4471
RightArm  -2.98616 -7.743 58.7204
RightForeArm  -9.7196 33.834 7.83078
RightHand  -2.22644 6.70567 -21.4477
LeftUpLeg  -22.1233 9.2721 6.31945
LeftLeg  54.496 5.01068 8.03008
LeftFoot  -30.9235 -3.38617 -20.5099
LeftToes  -5.54824e-011 -8.71001e-011 8.3852e-012
182
root  -1.28818 34.1262 11.8564 179.859 47.9845 175.2
RightUpLeg  -35.4937 -9.72083 -7.72523
RightLeg  77.9599 -2.43842 -14.9288
RightFoot  -14.0044 0.301534 16.9324
RightToes  2.32829e-010 0 -3.6325e-017
Spine  13.3178 4.21034 -21.1336
Spine1  17.3984 -0.804117 6.26442
HEad  -18.8361 28.9983 -13.986
LeftShoulder1  1.40264 -2.44462 -16.8949
LeftArm  2.8649 -9.58536 -58.6919
LeftForeArm  3.14023 -47.6646 -12.0642
LeftHand  -3.97056 -5.01912 42.6137
RightShoulder  1.01539 0.637616 18.0556
RightArm  -3.99463 -14.4731 58.4019
RightForeArm  -10.6871 22.1138 6.90064
RightHand  -2.25664 6.76818 -21.6122
LeftUpLeg  -19.8676 7.99451 8.07778
LeftLeg  55.3175 3.93164 6.63699
LeftFoot  -32.7724 -3.86913 -21.2661
LeftToes  -5.54824e-011 -8.71001e-011 8.3852e-012
